# MagicaVoxel @ Ephtracy

# group
o 

# material
mtllib FantasmaAzul.mtl
usemtl palette

# normals
vn -1 0 0
vn 1 0 0
vn 0 0 1
vn 0 0 -1
vn 0 -1 0
vn 0 1 0

# texcoords
vt 0.974609 0.5
vt 0.978516 0.5
vt 0.982422 0.5
vt 0.986328 0.5
vt 0.990234 0.5
vt 0.994141 0.5

# verts
v -1 0 0.4
v -1 0 -1
v -1 1.1 0.4
v -1 1.1 -1
v -0.9 1.1 0.4
v -0.9 1.1 -1
v -0.9 1.2 0.4
v -0.9 1.2 -1
v -0.9 1.5 -0.1
v -0.9 1.5 -0.5
v -0.9 1.6 -0.1
v -0.9 1.6 -0.5
v -0.8 1.2 0.4
v -0.8 1.2 -1
v -0.8 1.3 0.4
v -0.8 1.3 -1
v -0.8 1.5 0
v -0.8 1.5 -0.1
v -0.8 1.5 -0.5
v -0.8 1.5 -0.6
v -0.8 1.6 0
v -0.8 1.6 -0.1
v -0.8 1.6 -0.5
v -0.8 1.6 -0.6
v -0.7 0 0.4
v -0.7 0 -1
v -0.7 0.1 0.4
v -0.7 0.1 -1
v -0.7 1.3 0.4
v -0.7 1.3 -1
v -0.7 1.4 0.4
v -0.7 1.4 -1
v -0.7 1.5 0.1
v -0.7 1.5 0
v -0.7 1.5 -0.6
v -0.7 1.5 -0.7
v -0.7 1.6 0.1
v -0.7 1.6 0
v -0.7 1.6 -0.6
v -0.7 1.6 -0.7
v -0.6 1.5 0.2
v -0.6 1.5 0.1
v -0.6 1.5 -0.7
v -0.6 1.5 -0.8
v -0.6 1.6 0.2
v -0.6 1.6 0.1
v -0.6 1.6 -0.1
v -0.6 1.6 -0.5
v -0.6 1.6 -0.7
v -0.6 1.6 -0.8
v -0.6 1.7 -0.1
v -0.6 1.7 -0.5
v -0.6 1.9 -0.1
v -0.6 1.9 -0.5
v -0.5 0 0.4
v -0.5 0 -1
v -0.5 0.1 0.4
v -0.5 0.1 -1
v -0.5 0.7 0.4
v -0.5 0.7 0.3
v -0.5 0.9 0.3
v -0.5 1.1 0.4
v -0.5 1.1 0.3
v -0.5 1.4 0.4
v -0.5 1.4 -1
v -0.5 1.5 0.4
v -0.5 1.5 0.2
v -0.5 1.5 -0.8
v -0.5 1.5 -1
v -0.5 1.6 0
v -0.5 1.6 -0.1
v -0.5 1.6 -0.5
v -0.5 1.6 -0.6
v -0.5 1.7 0
v -0.5 1.7 -0.1
v -0.5 1.7 -0.5
v -0.5 1.7 -0.6
v -0.5 1.9 0
v -0.5 1.9 -0.1
v -0.5 1.9 -0.5
v -0.5 1.9 -0.6
v -0.3 0 0.4
v -0.3 0 -1
v -0.3 0.1 0.4
v -0.3 0.1 -1
v -0.1 0 0.4
v -0.1 0 -1
v -0.1 0.1 0.4
v -0.1 0.1 -1
v 0.1 0 0.4
v 0.1 0 -1
v 0.1 0.1 0.4
v 0.1 0.1 -1
v 0.2 0.7 0.4
v 0.2 0.7 0.3
v 0.2 0.9 0.3
v 0.2 1.1 0.4
v 0.2 1.1 0.3
v 0.3 0 0.4
v 0.3 0 -1
v 0.3 0.1 0.4
v 0.3 0.1 -1
v -0.8 0 0.4
v -0.8 0 -1
v -0.8 0.1 0.4
v -0.8 0.1 -1
v -0.8 0.7 0.4
v -0.8 0.7 0.3
v -0.8 0.9 0.3
v -0.8 1.1 0.4
v -0.8 1.1 0.3
v -0.6 0 0.4
v -0.6 0 -1
v -0.6 0.1 0.4
v -0.6 0.1 -1
v -0.4 0 0.4
v -0.4 0 -1
v -0.4 0.1 0.4
v -0.4 0.1 -1
v -0.2 0 0.4
v -0.2 0 -1
v -0.2 0.1 0.4
v -0.2 0.1 -1
v -0.1 0.7 0.4
v -0.1 0.7 0.3
v -0.1 0.9 0.3
v -0.1 1.1 0.4
v -0.1 1.1 0.3
v -0.1 1.4 0.4
v -0.1 1.4 -1
v -0.1 1.5 0.4
v -0.1 1.5 0.2
v -0.1 1.5 -0.8
v -0.1 1.5 -1
v -0.1 1.6 0
v -0.1 1.6 -0.1
v -0.1 1.6 -0.5
v -0.1 1.6 -0.6
v -0.1 1.7 0
v -0.1 1.7 -0.1
v -0.1 1.7 -0.5
v -0.1 1.7 -0.6
v -0.1 1.9 0
v -0.1 1.9 -0.1
v -0.1 1.9 -0.5
v -0.1 1.9 -0.6
v 0 0 0.4
v 0 0 -1
v 0 0.1 0.4
v 0 0.1 -1
v 0 1.5 0.2
v 0 1.5 0.1
v 0 1.5 -0.7
v 0 1.5 -0.8
v 0 1.6 0.2
v 0 1.6 0.1
v 0 1.6 -0.1
v 0 1.6 -0.5
v 0 1.6 -0.7
v 0 1.6 -0.8
v 0 1.7 -0.1
v 0 1.7 -0.5
v 0 1.9 -0.1
v 0 1.9 -0.5
v 0.1 1.3 0.4
v 0.1 1.3 -1
v 0.1 1.4 0.4
v 0.1 1.4 -1
v 0.1 1.5 0.1
v 0.1 1.5 0
v 0.1 1.5 -0.6
v 0.1 1.5 -0.7
v 0.1 1.6 0.1
v 0.1 1.6 0
v 0.1 1.6 -0.6
v 0.1 1.6 -0.7
v 0.2 0 0.4
v 0.2 0 -1
v 0.2 0.1 0.4
v 0.2 0.1 -1
v 0.2 1.2 0.4
v 0.2 1.2 -1
v 0.2 1.3 0.4
v 0.2 1.3 -1
v 0.2 1.5 0
v 0.2 1.5 -0.1
v 0.2 1.5 -0.5
v 0.2 1.5 -0.6
v 0.2 1.6 0
v 0.2 1.6 -0.1
v 0.2 1.6 -0.5
v 0.2 1.6 -0.6
v 0.3 1.1 0.4
v 0.3 1.1 -1
v 0.3 1.2 0.4
v 0.3 1.2 -1
v 0.3 1.5 -0.1
v 0.3 1.5 -0.5
v 0.3 1.6 -0.1
v 0.3 1.6 -0.5
v 0.4 0 0.4
v 0.4 0 -1
v 0.4 1.1 0.4
v 0.4 1.1 -1
v -1 0 0.4
v -1 1.1 0.4
v -0.9 1.1 0.4
v -0.9 1.2 0.4
v -0.8 0 0.4
v -0.8 0.1 0.4
v -0.8 0.7 0.4
v -0.8 1.1 0.4
v -0.8 1.2 0.4
v -0.8 1.3 0.4
v -0.7 0 0.4
v -0.7 0.1 0.4
v -0.7 0.3 0.4
v -0.7 0.4 0.4
v -0.7 1.3 0.4
v -0.7 1.4 0.4
v -0.6 0 0.4
v -0.6 0.1 0.4
v -0.6 0.3 0.4
v -0.6 0.4 0.4
v -0.6 0.5 0.4
v -0.5 0 0.4
v -0.5 0.1 0.4
v -0.5 0.3 0.4
v -0.5 0.4 0.4
v -0.5 0.5 0.4
v -0.5 0.7 0.4
v -0.5 1.1 0.4
v -0.5 1.4 0.4
v -0.5 1.5 0.4
v -0.4 0 0.4
v -0.4 0.1 0.4
v -0.4 0.3 0.4
v -0.4 0.4 0.4
v -0.4 0.5 0.4
v -0.3 0 0.4
v -0.3 0.1 0.4
v -0.3 0.3 0.4
v -0.3 0.4 0.4
v -0.3 0.5 0.4
v -0.2 0 0.4
v -0.2 0.1 0.4
v -0.2 0.3 0.4
v -0.2 0.4 0.4
v -0.2 0.5 0.4
v -0.1 0 0.4
v -0.1 0.1 0.4
v -0.1 0.3 0.4
v -0.1 0.4 0.4
v -0.1 0.5 0.4
v -0.1 0.7 0.4
v -0.1 1.1 0.4
v -0.1 1.4 0.4
v -0.1 1.5 0.4
v 0 0 0.4
v 0 0.1 0.4
v 0 0.3 0.4
v 0 0.4 0.4
v 0 0.5 0.4
v 0.1 0 0.4
v 0.1 0.1 0.4
v 0.1 0.4 0.4
v 0.1 0.5 0.4
v 0.1 1.3 0.4
v 0.1 1.4 0.4
v 0.2 0 0.4
v 0.2 0.1 0.4
v 0.2 0.7 0.4
v 0.2 1.1 0.4
v 0.2 1.2 0.4
v 0.2 1.3 0.4
v 0.3 0 0.4
v 0.3 0.1 0.4
v 0.3 1.1 0.4
v 0.3 1.2 0.4
v 0.4 0 0.4
v 0.4 1.1 0.4
v -0.8 0.7 0.3
v -0.8 0.9 0.3
v -0.8 1.1 0.3
v -0.5 0.7 0.3
v -0.5 0.9 0.3
v -0.5 1.1 0.3
v -0.1 0.7 0.3
v -0.1 0.9 0.3
v -0.1 1.1 0.3
v 0.2 0.7 0.3
v 0.2 0.9 0.3
v 0.2 1.1 0.3
v -0.6 1.5 0.2
v -0.6 1.6 0.2
v -0.5 1.5 0.2
v -0.1 1.5 0.2
v 0 1.5 0.2
v 0 1.6 0.2
v -0.7 1.5 0.1
v -0.7 1.6 0.1
v -0.6 1.5 0.1
v -0.6 1.6 0.1
v 0 1.5 0.1
v 0 1.6 0.1
v 0.1 1.5 0.1
v 0.1 1.6 0.1
v -0.8 1.5 0
v -0.8 1.6 0
v -0.7 1.5 0
v -0.7 1.6 0
v -0.5 1.6 0
v -0.5 1.7 0
v -0.5 1.9 0
v -0.1 1.6 0
v -0.1 1.7 0
v -0.1 1.9 0
v 0.1 1.5 0
v 0.1 1.6 0
v 0.2 1.5 0
v 0.2 1.6 0
v -0.9 1.5 -0.1
v -0.9 1.6 -0.1
v -0.8 1.5 -0.1
v -0.8 1.6 -0.1
v -0.6 1.6 -0.1
v -0.6 1.7 -0.1
v -0.6 1.9 -0.1
v -0.5 1.6 -0.1
v -0.5 1.7 -0.1
v -0.5 1.9 -0.1
v -0.1 1.6 -0.1
v -0.1 1.7 -0.1
v -0.1 1.9 -0.1
v 0 1.6 -0.1
v 0 1.7 -0.1
v 0 1.9 -0.1
v 0.2 1.5 -0.1
v 0.2 1.6 -0.1
v 0.3 1.5 -0.1
v 0.3 1.6 -0.1
v -0.9 1.5 -0.5
v -0.9 1.6 -0.5
v -0.8 1.5 -0.5
v -0.8 1.6 -0.5
v -0.6 1.6 -0.5
v -0.6 1.7 -0.5
v -0.6 1.9 -0.5
v -0.5 1.6 -0.5
v -0.5 1.7 -0.5
v -0.5 1.9 -0.5
v -0.1 1.6 -0.5
v -0.1 1.7 -0.5
v -0.1 1.9 -0.5
v 0 1.6 -0.5
v 0 1.7 -0.5
v 0 1.9 -0.5
v 0.2 1.5 -0.5
v 0.2 1.6 -0.5
v 0.3 1.5 -0.5
v 0.3 1.6 -0.5
v -0.8 1.5 -0.6
v -0.8 1.6 -0.6
v -0.7 1.5 -0.6
v -0.7 1.6 -0.6
v -0.5 1.6 -0.6
v -0.5 1.7 -0.6
v -0.5 1.9 -0.6
v -0.1 1.6 -0.6
v -0.1 1.7 -0.6
v -0.1 1.9 -0.6
v 0.1 1.5 -0.6
v 0.1 1.6 -0.6
v 0.2 1.5 -0.6
v 0.2 1.6 -0.6
v -0.7 1.5 -0.7
v -0.7 1.6 -0.7
v -0.6 1.5 -0.7
v -0.6 1.6 -0.7
v 0 1.5 -0.7
v 0 1.6 -0.7
v 0.1 1.5 -0.7
v 0.1 1.6 -0.7
v -0.6 1.5 -0.8
v -0.6 1.6 -0.8
v -0.5 1.5 -0.8
v -0.1 1.5 -0.8
v 0 1.5 -0.8
v 0 1.6 -0.8
v -1 0 -1
v -1 1.1 -1
v -0.9 1.1 -1
v -0.9 1.2 -1
v -0.8 0 -1
v -0.8 0.1 -1
v -0.8 1.2 -1
v -0.8 1.3 -1
v -0.7 0 -1
v -0.7 0.1 -1
v -0.7 1.3 -1
v -0.7 1.4 -1
v -0.6 0 -1
v -0.6 0.1 -1
v -0.5 0 -1
v -0.5 0.1 -1
v -0.5 1.4 -1
v -0.5 1.5 -1
v -0.4 0 -1
v -0.4 0.1 -1
v -0.3 0 -1
v -0.3 0.1 -1
v -0.2 0 -1
v -0.2 0.1 -1
v -0.1 0 -1
v -0.1 0.1 -1
v -0.1 1.4 -1
v -0.1 1.5 -1
v 0 0 -1
v 0 0.1 -1
v 0.1 0 -1
v 0.1 0.1 -1
v 0.1 1.3 -1
v 0.1 1.4 -1
v 0.2 0 -1
v 0.2 0.1 -1
v 0.2 1.2 -1
v 0.2 1.3 -1
v 0.3 0 -1
v 0.3 0.1 -1
v 0.3 1.1 -1
v 0.3 1.2 -1
v 0.4 0 -1
v 0.4 1.1 -1
v -1 0 0.4
v -0.8 0 0.4
v -0.7 0 0.4
v -0.6 0 0.4
v -0.5 0 0.4
v -0.4 0 0.4
v -0.3 0 0.4
v -0.2 0 0.4
v -0.1 0 0.4
v 0 0 0.4
v 0.1 0 0.4
v 0.2 0 0.4
v 0.3 0 0.4
v 0.4 0 0.4
v -1 0 -1
v -0.8 0 -1
v -0.7 0 -1
v -0.6 0 -1
v -0.5 0 -1
v -0.4 0 -1
v -0.3 0 -1
v -0.2 0 -1
v -0.1 0 -1
v 0 0 -1
v 0.1 0 -1
v 0.2 0 -1
v 0.3 0 -1
v 0.4 0 -1
v -0.8 0.1 0.4
v -0.7 0.1 0.4
v -0.6 0.1 0.4
v -0.5 0.1 0.4
v -0.4 0.1 0.4
v -0.3 0.1 0.4
v -0.2 0.1 0.4
v -0.1 0.1 0.4
v 0 0.1 0.4
v 0.1 0.1 0.4
v 0.2 0.1 0.4
v 0.3 0.1 0.4
v -0.8 0.1 -1
v -0.7 0.1 -1
v -0.6 0.1 -1
v -0.5 0.1 -1
v -0.4 0.1 -1
v -0.3 0.1 -1
v -0.2 0.1 -1
v -0.1 0.1 -1
v 0 0.1 -1
v 0.1 0.1 -1
v 0.2 0.1 -1
v 0.3 0.1 -1
v -0.8 1.1 0.4
v -0.5 1.1 0.4
v -0.1 1.1 0.4
v 0.2 1.1 0.4
v -0.8 1.1 0.3
v -0.5 1.1 0.3
v -0.1 1.1 0.3
v 0.2 1.1 0.3
v -0.6 1.5 0.2
v -0.5 1.5 0.2
v -0.1 1.5 0.2
v 0 1.5 0.2
v -0.7 1.5 0.1
v -0.6 1.5 0.1
v 0 1.5 0.1
v 0.1 1.5 0.1
v -0.8 1.5 0
v -0.7 1.5 0
v 0.1 1.5 0
v 0.2 1.5 0
v -0.9 1.5 -0.1
v -0.8 1.5 -0.1
v 0.2 1.5 -0.1
v 0.3 1.5 -0.1
v -0.9 1.5 -0.5
v -0.8 1.5 -0.5
v 0.2 1.5 -0.5
v 0.3 1.5 -0.5
v -0.8 1.5 -0.6
v -0.7 1.5 -0.6
v 0.1 1.5 -0.6
v 0.2 1.5 -0.6
v -0.7 1.5 -0.7
v -0.6 1.5 -0.7
v 0 1.5 -0.7
v 0.1 1.5 -0.7
v -0.6 1.5 -0.8
v -0.5 1.5 -0.8
v -0.1 1.5 -0.8
v 0 1.5 -0.8
v -0.8 0.7 0.4
v -0.5 0.7 0.4
v -0.1 0.7 0.4
v 0.2 0.7 0.4
v -0.8 0.7 0.3
v -0.5 0.7 0.3
v -0.1 0.7 0.3
v 0.2 0.7 0.3
v -1 1.1 0.4
v -0.9 1.1 0.4
v 0.3 1.1 0.4
v 0.4 1.1 0.4
v -1 1.1 -1
v -0.9 1.1 -1
v 0.3 1.1 -1
v 0.4 1.1 -1
v -0.9 1.2 0.4
v -0.8 1.2 0.4
v 0.2 1.2 0.4
v 0.3 1.2 0.4
v -0.9 1.2 -1
v -0.8 1.2 -1
v 0.2 1.2 -1
v 0.3 1.2 -1
v -0.8 1.3 0.4
v -0.7 1.3 0.4
v 0.1 1.3 0.4
v 0.2 1.3 0.4
v -0.8 1.3 -1
v -0.7 1.3 -1
v 0.1 1.3 -1
v 0.2 1.3 -1
v -0.7 1.4 0.4
v -0.5 1.4 0.4
v -0.1 1.4 0.4
v 0.1 1.4 0.4
v -0.7 1.4 -1
v -0.5 1.4 -1
v -0.1 1.4 -1
v 0.1 1.4 -1
v -0.5 1.5 0.4
v -0.1 1.5 0.4
v -0.5 1.5 0.2
v -0.1 1.5 0.2
v -0.5 1.5 -0.8
v -0.1 1.5 -0.8
v -0.5 1.5 -1
v -0.1 1.5 -1
v -0.6 1.6 0.2
v 0 1.6 0.2
v -0.7 1.6 0.1
v -0.6 1.6 0.1
v 0 1.6 0.1
v 0.1 1.6 0.1
v -0.8 1.6 0
v -0.7 1.6 0
v -0.5 1.6 0
v -0.1 1.6 0
v 0.1 1.6 0
v 0.2 1.6 0
v -0.9 1.6 -0.1
v -0.8 1.6 -0.1
v -0.6 1.6 -0.1
v -0.5 1.6 -0.1
v -0.1 1.6 -0.1
v 0 1.6 -0.1
v 0.2 1.6 -0.1
v 0.3 1.6 -0.1
v -0.9 1.6 -0.5
v -0.8 1.6 -0.5
v -0.6 1.6 -0.5
v -0.5 1.6 -0.5
v -0.1 1.6 -0.5
v 0 1.6 -0.5
v 0.2 1.6 -0.5
v 0.3 1.6 -0.5
v -0.8 1.6 -0.6
v -0.7 1.6 -0.6
v -0.5 1.6 -0.6
v -0.1 1.6 -0.6
v 0.1 1.6 -0.6
v 0.2 1.6 -0.6
v -0.7 1.6 -0.7
v -0.6 1.6 -0.7
v 0 1.6 -0.7
v 0.1 1.6 -0.7
v -0.6 1.6 -0.8
v 0 1.6 -0.8
v -0.5 1.9 0
v -0.1 1.9 0
v -0.6 1.9 -0.1
v -0.5 1.9 -0.1
v -0.1 1.9 -0.1
v 0 1.9 -0.1
v -0.6 1.9 -0.5
v -0.5 1.9 -0.5
v -0.1 1.9 -0.5
v 0 1.9 -0.5
v -0.5 1.9 -0.6
v -0.1 1.9 -0.6

# faces
f 3/1/1 2/1/1 1/1/1
f 4/1/1 2/1/1 3/1/1
f 7/1/1 6/1/1 5/1/1
f 8/1/1 6/1/1 7/1/1
f 11/5/1 10/5/1 9/5/1
f 12/5/1 10/5/1 11/5/1
f 15/1/1 14/1/1 13/1/1
f 16/1/1 14/1/1 15/1/1
f 21/5/1 18/5/1 17/5/1
f 22/5/1 18/5/1 21/5/1
f 23/5/1 20/5/1 19/5/1
f 24/5/1 20/5/1 23/5/1
f 27/1/1 26/1/1 25/1/1
f 28/1/1 26/1/1 27/1/1
f 31/1/1 30/1/1 29/1/1
f 32/1/1 30/1/1 31/1/1
f 37/5/1 34/5/1 33/5/1
f 38/5/1 34/5/1 37/5/1
f 39/5/1 36/5/1 35/5/1
f 40/5/1 36/5/1 39/5/1
f 45/5/1 42/5/1 41/5/1
f 46/5/1 42/5/1 45/5/1
f 49/5/1 44/5/1 43/5/1
f 50/5/1 44/5/1 49/5/1
f 51/6/1 48/6/1 47/6/1
f 52/6/1 48/6/1 51/6/1
f 53/5/1 52/5/1 51/5/1
f 54/5/1 52/5/1 53/5/1
f 57/1/1 56/1/1 55/1/1
f 58/1/1 56/1/1 57/1/1
f 61/1/1 60/1/1 59/1/1
f 62/1/1 61/1/1 59/1/1
f 63/1/1 61/1/1 62/1/1
f 66/1/1 65/1/1 64/1/1
f 67/1/1 65/1/1 66/1/1
f 68/1/1 65/1/1 67/1/1
f 69/1/1 65/1/1 68/1/1
f 74/6/1 71/6/1 70/6/1
f 75/6/1 71/6/1 74/6/1
f 76/6/1 73/6/1 72/6/1
f 77/6/1 73/6/1 76/6/1
f 78/5/1 75/5/1 74/5/1
f 79/5/1 75/5/1 78/5/1
f 80/5/1 77/5/1 76/5/1
f 81/5/1 77/5/1 80/5/1
f 84/1/1 83/1/1 82/1/1
f 85/1/1 83/1/1 84/1/1
f 88/1/1 87/1/1 86/1/1
f 89/1/1 87/1/1 88/1/1
f 92/1/1 91/1/1 90/1/1
f 93/1/1 91/1/1 92/1/1
f 96/1/1 95/1/1 94/1/1
f 97/1/1 96/1/1 94/1/1
f 98/1/1 96/1/1 97/1/1
f 101/1/1 100/1/1 99/1/1
f 102/1/1 100/1/1 101/1/1
f 103/1/2 104/1/2 105/1/2
f 105/1/2 104/1/2 106/1/2
f 107/1/2 108/1/2 109/1/2
f 107/1/2 109/1/2 110/1/2
f 110/1/2 109/1/2 111/1/2
f 112/1/2 113/1/2 114/1/2
f 114/1/2 113/1/2 115/1/2
f 116/1/2 117/1/2 118/1/2
f 118/1/2 117/1/2 119/1/2
f 120/1/2 121/1/2 122/1/2
f 122/1/2 121/1/2 123/1/2
f 124/1/2 125/1/2 126/1/2
f 124/1/2 126/1/2 127/1/2
f 127/1/2 126/1/2 128/1/2
f 129/1/2 130/1/2 131/1/2
f 131/1/2 130/1/2 132/1/2
f 132/1/2 130/1/2 133/1/2
f 133/1/2 130/1/2 134/1/2
f 135/6/2 136/6/2 139/6/2
f 139/6/2 136/6/2 140/6/2
f 137/6/2 138/6/2 141/6/2
f 141/6/2 138/6/2 142/6/2
f 139/5/2 140/5/2 143/5/2
f 143/5/2 140/5/2 144/5/2
f 141/5/2 142/5/2 145/5/2
f 145/5/2 142/5/2 146/5/2
f 147/1/2 148/1/2 149/1/2
f 149/1/2 148/1/2 150/1/2
f 151/5/2 152/5/2 155/5/2
f 155/5/2 152/5/2 156/5/2
f 153/5/2 154/5/2 159/5/2
f 159/5/2 154/5/2 160/5/2
f 157/6/2 158/6/2 161/6/2
f 161/6/2 158/6/2 162/6/2
f 161/5/2 162/5/2 163/5/2
f 163/5/2 162/5/2 164/5/2
f 165/1/2 166/1/2 167/1/2
f 167/1/2 166/1/2 168/1/2
f 169/5/2 170/5/2 173/5/2
f 173/5/2 170/5/2 174/5/2
f 171/5/2 172/5/2 175/5/2
f 175/5/2 172/5/2 176/5/2
f 177/1/2 178/1/2 179/1/2
f 179/1/2 178/1/2 180/1/2
f 181/1/2 182/1/2 183/1/2
f 183/1/2 182/1/2 184/1/2
f 185/5/2 186/5/2 189/5/2
f 189/5/2 186/5/2 190/5/2
f 187/5/2 188/5/2 191/5/2
f 191/5/2 188/5/2 192/5/2
f 193/1/2 194/1/2 195/1/2
f 195/1/2 194/1/2 196/1/2
f 197/5/2 198/5/2 199/5/2
f 199/5/2 198/5/2 200/5/2
f 201/1/2 202/1/2 203/1/2
f 203/1/2 202/1/2 204/1/2
f 207/1/3 206/1/3 205/1/3
f 209/1/3 207/1/3 205/1/3
f 209/1/3 208/1/3 207/1/3
f 210/1/3 208/1/3 209/1/3
f 211/1/3 208/1/3 210/1/3
f 212/1/3 208/1/3 211/1/3
f 213/1/3 208/1/3 212/1/3
f 216/1/3 211/1/3 210/1/3
f 217/1/3 211/1/3 216/1/3
f 218/1/3 211/1/3 217/1/3
f 219/1/3 214/1/3 213/1/3
f 219/1/3 213/1/3 212/1/3
f 221/1/3 216/1/3 215/1/3
f 221/1/3 217/1/3 216/1/3
f 222/1/3 217/1/3 221/1/3
f 223/4/3 218/4/3 217/4/3
f 223/1/3 217/1/3 222/1/3
f 224/1/3 211/1/3 218/1/3
f 224/4/3 218/4/3 223/4/3
f 225/1/3 211/1/3 224/1/3
f 227/1/3 223/1/3 222/1/3
f 227/1/3 224/1/3 223/1/3
f 228/1/3 224/1/3 227/1/3
f 229/4/3 225/4/3 224/4/3
f 229/1/3 224/1/3 228/1/3
f 230/1/3 211/1/3 225/1/3
f 230/4/3 225/4/3 229/4/3
f 231/1/3 211/1/3 230/1/3
f 232/1/3 220/1/3 219/1/3
f 232/1/3 219/1/3 212/1/3
f 233/1/3 220/1/3 232/1/3
f 235/1/3 228/1/3 227/1/3
f 235/1/3 227/1/3 226/1/3
f 236/1/3 228/1/3 235/1/3
f 237/4/3 229/4/3 228/4/3
f 237/1/3 228/1/3 236/1/3
f 238/1/3 234/1/3 233/1/3
f 238/4/3 229/4/3 237/4/3
f 238/1/3 231/1/3 230/1/3
f 238/1/3 230/1/3 229/1/3
f 238/1/3 232/1/3 231/1/3
f 238/1/3 233/1/3 232/1/3
f 239/1/3 234/1/3 238/1/3
f 241/1/3 237/1/3 236/1/3
f 241/1/3 238/1/3 237/1/3
f 242/1/3 238/1/3 241/1/3
f 243/4/3 239/4/3 238/4/3
f 243/1/3 238/1/3 242/1/3
f 244/1/3 234/1/3 239/1/3
f 244/4/3 239/4/3 243/4/3
f 245/1/3 242/1/3 241/1/3
f 245/1/3 241/1/3 240/1/3
f 246/1/3 242/1/3 245/1/3
f 247/4/3 243/4/3 242/4/3
f 247/1/3 242/1/3 246/1/3
f 248/1/3 244/1/3 243/1/3
f 248/4/3 243/4/3 247/4/3
f 249/1/3 234/1/3 244/1/3
f 249/1/3 244/1/3 248/1/3
f 251/1/3 248/1/3 247/1/3
f 251/1/3 247/1/3 246/1/3
f 252/1/3 248/1/3 251/1/3
f 253/4/3 249/4/3 248/4/3
f 253/1/3 248/1/3 252/1/3
f 254/1/3 234/1/3 249/1/3
f 254/4/3 249/4/3 253/4/3
f 255/1/3 234/1/3 254/1/3
f 256/1/3 234/1/3 255/1/3
f 257/1/3 234/1/3 256/1/3
f 258/1/3 234/1/3 257/1/3
f 259/1/3 252/1/3 251/1/3
f 259/1/3 251/1/3 250/1/3
f 260/1/3 252/1/3 259/1/3
f 261/4/3 253/4/3 252/4/3
f 261/1/3 252/1/3 260/1/3
f 262/1/3 254/1/3 253/1/3
f 262/4/3 253/4/3 261/4/3
f 262/1/3 255/1/3 254/1/3
f 263/1/3 255/1/3 262/1/3
f 265/1/3 261/1/3 260/1/3
f 265/1/3 262/1/3 261/1/3
f 266/4/3 263/4/3 262/4/3
f 266/1/3 262/1/3 265/1/3
f 267/1/3 255/1/3 263/1/3
f 267/4/3 263/4/3 266/4/3
f 268/1/3 257/1/3 256/1/3
f 269/1/3 257/1/3 268/1/3
f 270/1/3 266/1/3 265/1/3
f 270/1/3 265/1/3 264/1/3
f 270/1/3 267/1/3 266/1/3
f 271/1/3 267/1/3 270/1/3
f 272/1/3 255/1/3 267/1/3
f 272/1/3 267/1/3 271/1/3
f 273/1/3 268/1/3 256/1/3
f 274/1/3 268/1/3 273/1/3
f 275/1/3 268/1/3 274/1/3
f 277/1/3 272/1/3 271/1/3
f 277/1/3 274/1/3 273/1/3
f 277/1/3 273/1/3 272/1/3
f 278/1/3 274/1/3 277/1/3
f 279/1/3 274/1/3 278/1/3
f 280/1/3 277/1/3 276/1/3
f 280/1/3 278/1/3 277/1/3
f 281/1/3 278/1/3 280/1/3
f 285/3/3 283/3/3 282/3/3
f 286/2/3 284/2/3 283/2/3
f 286/3/3 283/3/3 285/3/3
f 287/2/3 284/2/3 286/2/3
f 291/3/3 289/3/3 288/3/3
f 292/2/3 290/2/3 289/2/3
f 292/3/3 289/3/3 291/3/3
f 293/2/3 290/2/3 292/2/3
f 296/5/3 295/5/3 294/5/3
f 297/5/3 295/5/3 296/5/3
f 298/5/3 295/5/3 297/5/3
f 299/5/3 295/5/3 298/5/3
f 302/5/3 301/5/3 300/5/3
f 303/5/3 301/5/3 302/5/3
f 306/5/3 305/5/3 304/5/3
f 307/5/3 305/5/3 306/5/3
f 310/5/3 309/5/3 308/5/3
f 311/5/3 309/5/3 310/5/3
f 315/6/3 313/6/3 312/6/3
f 316/5/3 314/5/3 313/5/3
f 316/6/3 313/6/3 315/6/3
f 317/5/3 314/5/3 316/5/3
f 320/5/3 319/5/3 318/5/3
f 321/5/3 319/5/3 320/5/3
f 324/5/3 323/5/3 322/5/3
f 325/5/3 323/5/3 324/5/3
f 329/6/3 327/6/3 326/6/3
f 330/5/3 328/5/3 327/5/3
f 330/6/3 327/6/3 329/6/3
f 331/5/3 328/5/3 330/5/3
f 335/6/3 333/6/3 332/6/3
f 336/5/3 334/5/3 333/5/3
f 336/6/3 333/6/3 335/6/3
f 337/5/3 334/5/3 336/5/3
f 340/5/3 339/5/3 338/5/3
f 341/5/3 339/5/3 340/5/3
f 342/5/4 343/5/4 344/5/4
f 344/5/4 343/5/4 345/5/4
f 346/6/4 347/6/4 349/6/4
f 347/5/4 348/5/4 350/5/4
f 349/6/4 347/6/4 350/6/4
f 350/5/4 348/5/4 351/5/4
f 352/6/4 353/6/4 355/6/4
f 353/5/4 354/5/4 356/5/4
f 355/6/4 353/6/4 356/6/4
f 356/5/4 354/5/4 357/5/4
f 358/5/4 359/5/4 360/5/4
f 360/5/4 359/5/4 361/5/4
f 362/5/4 363/5/4 364/5/4
f 364/5/4 363/5/4 365/5/4
f 366/6/4 367/6/4 369/6/4
f 367/5/4 368/5/4 370/5/4
f 369/6/4 367/6/4 370/6/4
f 370/5/4 368/5/4 371/5/4
f 372/5/4 373/5/4 374/5/4
f 374/5/4 373/5/4 375/5/4
f 376/5/4 377/5/4 378/5/4
f 378/5/4 377/5/4 379/5/4
f 380/5/4 381/5/4 382/5/4
f 382/5/4 381/5/4 383/5/4
f 384/5/4 385/5/4 386/5/4
f 386/5/4 385/5/4 387/5/4
f 387/5/4 385/5/4 388/5/4
f 388/5/4 385/5/4 389/5/4
f 390/1/4 391/1/4 392/1/4
f 390/1/4 392/1/4 394/1/4
f 392/1/4 393/1/4 394/1/4
f 394/1/4 393/1/4 395/1/4
f 395/1/4 393/1/4 396/1/4
f 396/1/4 397/1/4 399/1/4
f 395/1/4 396/1/4 399/1/4
f 399/1/4 397/1/4 400/1/4
f 398/1/4 399/1/4 402/1/4
f 400/1/4 401/1/4 402/1/4
f 399/1/4 400/1/4 402/1/4
f 402/1/4 401/1/4 403/1/4
f 403/1/4 401/1/4 405/1/4
f 405/1/4 401/1/4 406/1/4
f 404/1/4 405/1/4 408/1/4
f 406/1/4 407/1/4 408/1/4
f 405/1/4 406/1/4 408/1/4
f 408/1/4 407/1/4 409/1/4
f 409/1/4 407/1/4 411/1/4
f 410/1/4 411/1/4 412/1/4
f 411/1/4 407/1/4 413/1/4
f 412/1/4 411/1/4 413/1/4
f 413/1/4 407/1/4 415/1/4
f 415/1/4 407/1/4 416/1/4
f 416/1/4 407/1/4 417/1/4
f 414/1/4 415/1/4 418/1/4
f 415/1/4 416/1/4 418/1/4
f 418/1/4 416/1/4 419/1/4
f 419/1/4 416/1/4 421/1/4
f 421/1/4 416/1/4 422/1/4
f 422/1/4 416/1/4 423/1/4
f 420/1/4 421/1/4 424/1/4
f 421/1/4 422/1/4 424/1/4
f 424/1/4 422/1/4 425/1/4
f 425/1/4 422/1/4 426/1/4
f 426/1/4 422/1/4 427/1/4
f 425/1/4 426/1/4 429/1/4
f 429/1/4 426/1/4 430/1/4
f 430/1/4 426/1/4 431/1/4
f 428/1/4 429/1/4 432/1/4
f 429/1/4 430/1/4 432/1/4
f 432/1/4 430/1/4 433/1/4
f 448/1/5 435/1/5 434/1/5
f 449/1/5 435/1/5 448/1/5
f 450/1/5 437/1/5 436/1/5
f 451/1/5 437/1/5 450/1/5
f 452/1/5 439/1/5 438/1/5
f 453/1/5 439/1/5 452/1/5
f 454/1/5 441/1/5 440/1/5
f 455/1/5 441/1/5 454/1/5
f 456/1/5 443/1/5 442/1/5
f 457/1/5 443/1/5 456/1/5
f 458/1/5 445/1/5 444/1/5
f 459/1/5 445/1/5 458/1/5
f 460/1/5 447/1/5 446/1/5
f 461/1/5 447/1/5 460/1/5
f 474/1/5 463/1/5 462/1/5
f 475/1/5 463/1/5 474/1/5
f 476/1/5 465/1/5 464/1/5
f 477/1/5 465/1/5 476/1/5
f 478/1/5 467/1/5 466/1/5
f 479/1/5 467/1/5 478/1/5
f 480/1/5 469/1/5 468/1/5
f 481/1/5 469/1/5 480/1/5
f 482/1/5 471/1/5 470/1/5
f 483/1/5 471/1/5 482/1/5
f 484/1/5 473/1/5 472/1/5
f 485/1/5 473/1/5 484/1/5
f 490/1/5 487/1/5 486/1/5
f 491/1/5 487/1/5 490/1/5
f 492/1/5 489/1/5 488/1/5
f 493/1/5 489/1/5 492/1/5
f 499/5/5 495/5/5 494/5/5
f 500/5/5 497/5/5 496/5/5
f 503/5/5 499/5/5 498/5/5
f 504/5/5 501/5/5 500/5/5
f 507/5/5 503/5/5 502/5/5
f 508/5/5 505/5/5 504/5/5
f 510/5/5 507/5/5 506/5/5
f 511/5/5 503/5/5 507/5/5
f 511/5/5 507/5/5 510/5/5
f 512/5/5 509/5/5 508/5/5
f 512/5/5 508/5/5 504/5/5
f 513/5/5 509/5/5 512/5/5
f 514/5/5 503/5/5 511/5/5
f 515/5/5 499/5/5 503/5/5
f 515/5/5 503/5/5 514/5/5
f 516/5/5 504/5/5 500/5/5
f 516/5/5 512/5/5 504/5/5
f 517/5/5 512/5/5 516/5/5
f 518/5/5 499/5/5 515/5/5
f 519/5/5 495/5/5 499/5/5
f 519/5/5 499/5/5 518/5/5
f 520/5/5 500/5/5 496/5/5
f 520/5/5 516/5/5 500/5/5
f 521/5/5 516/5/5 520/5/5
f 522/5/5 495/5/5 519/5/5
f 523/5/5 495/5/5 522/5/5
f 524/5/5 520/5/5 496/5/5
f 525/5/5 520/5/5 524/5/5
f 526/1/6 527/1/6 530/1/6
f 530/1/6 527/1/6 531/1/6
f 528/1/6 529/1/6 532/1/6
f 532/1/6 529/1/6 533/1/6
f 534/1/6 535/1/6 538/1/6
f 538/1/6 535/1/6 539/1/6
f 536/1/6 537/1/6 540/1/6
f 540/1/6 537/1/6 541/1/6
f 542/1/6 543/1/6 546/1/6
f 546/1/6 543/1/6 547/1/6
f 544/1/6 545/1/6 548/1/6
f 548/1/6 545/1/6 549/1/6
f 550/1/6 551/1/6 554/1/6
f 554/1/6 551/1/6 555/1/6
f 552/1/6 553/1/6 556/1/6
f 556/1/6 553/1/6 557/1/6
f 558/1/6 559/1/6 562/1/6
f 562/1/6 559/1/6 563/1/6
f 560/1/6 561/1/6 564/1/6
f 564/1/6 561/1/6 565/1/6
f 566/1/6 567/1/6 568/1/6
f 568/1/6 567/1/6 569/1/6
f 570/1/6 571/1/6 572/1/6
f 572/1/6 571/1/6 573/1/6
f 574/5/6 575/5/6 577/5/6
f 577/5/6 575/5/6 578/5/6
f 576/5/6 577/5/6 581/5/6
f 578/5/6 579/5/6 581/5/6
f 577/5/6 578/5/6 581/5/6
f 581/5/6 579/5/6 582/5/6
f 582/5/6 579/5/6 583/5/6
f 583/5/6 579/5/6 584/5/6
f 580/5/6 581/5/6 587/5/6
f 581/5/6 582/5/6 587/5/6
f 587/5/6 582/5/6 588/5/6
f 588/5/6 582/5/6 589/5/6
f 583/5/6 584/5/6 590/5/6
f 584/5/6 585/5/6 590/5/6
f 590/5/6 585/5/6 591/5/6
f 591/5/6 585/5/6 592/5/6
f 587/5/6 588/5/6 594/5/6
f 586/5/6 587/5/6 594/5/6
f 594/5/6 588/5/6 595/5/6
f 595/5/6 588/5/6 596/5/6
f 592/5/6 593/5/6 599/5/6
f 591/5/6 592/5/6 599/5/6
f 599/5/6 593/5/6 600/5/6
f 600/5/6 593/5/6 601/5/6
f 596/5/6 597/5/6 602/5/6
f 595/5/6 596/5/6 602/5/6
f 602/5/6 597/5/6 603/5/6
f 603/5/6 597/5/6 604/5/6
f 599/5/6 600/5/6 605/5/6
f 598/5/6 599/5/6 605/5/6
f 605/5/6 600/5/6 606/5/6
f 606/5/6 600/5/6 607/5/6
f 603/5/6 604/5/6 608/5/6
f 605/5/6 606/5/6 608/5/6
f 604/5/6 605/5/6 608/5/6
f 608/5/6 606/5/6 609/5/6
f 609/5/6 606/5/6 610/5/6
f 610/5/6 606/5/6 611/5/6
f 609/5/6 610/5/6 612/5/6
f 612/5/6 610/5/6 613/5/6
f 614/5/6 615/5/6 617/5/6
f 617/5/6 615/5/6 618/5/6
f 616/5/6 617/5/6 620/5/6
f 618/5/6 619/5/6 620/5/6
f 617/5/6 618/5/6 620/5/6
f 620/5/6 619/5/6 621/5/6
f 621/5/6 619/5/6 622/5/6
f 622/5/6 619/5/6 623/5/6
f 621/5/6 622/5/6 624/5/6
f 624/5/6 622/5/6 625/5/6
